<svg xmlns="http://www.w3.org/2000/svg" viewBox="0 0 1151 1500"><title>logo</title><g id="a7ed5be7-cfb4-4392-9e75-20d28bc2c0c8" data-name="Layer 2"><path d="M750-.5l-575.5,375v750l575.5,375,575.5-375v-750Zm66.52,910.75-.14,51.14L648.3,1092.92q-10.19,8-10.22,16.75a17.2,17.2,0,0,0,3.55,10.18,13.24,13.24,0,0,0,9.34,3.6q8,0,18.44-7.92l146.86-112.89-.71,262.86-68.86,44.36.45-165.53-40.77,29a63.71,63.71,0,0,1-29.17,7.35q-31.07-.08-61.5-35.09-22.45-35.8-22.38-62.75t23.22-45L747.71,935.36l0-9.9h0l.15-54.44L661,870.78q-53.06-.14-52.83-87.3.25-91.56,53.31-91.42l46.47.13-.19,68.74-23.37-.06q-30-.08-30,20.27-.06,20.9,29.91,21l63.79.17.32-117.68,68.83-32.81-.7,258.46Zm.85-313.45-330-.89.19-68.74,330,.89ZM652.74,466.57l.19-68.74,96.24.26.12-42.89h0l.23-85.24-99.26-.27.19-68.74,168,.45L818,369.13h0l-.08,29.15,46.19.13q23.63,4.19,25.72,46.81L854,487.46q-1.59-20.35-36.24-20.45Zm237.69,719.12a24.27,24.27,0,0,1-18.31,7.92,24.79,24.79,0,0,1-18.54-7.89,26.15,26.15,0,0,1-7.51-18.86,25.69,25.69,0,0,1,7.61-18.68,25,25,0,0,1,18.58-7.65,24.42,24.42,0,0,1,18.13,8A25.75,25.75,0,0,1,898,1167,26.3,26.3,0,0,1,890.42,1185.68Zm.17-63.24a24.27,24.27,0,0,1-18.31,7.92,24.78,24.78,0,0,1-18.54-7.89,26.14,26.14,0,0,1-7.51-18.86,25.69,25.69,0,0,1,7.61-18.68,25,25,0,0,1,18.58-7.65,24.43,24.43,0,0,1,18.13,8,25.76,25.76,0,0,1,7.65,18.44A26.3,26.3,0,0,1,890.6,1122.44Zm2.08-767.69a24.27,24.27,0,0,1-18.31,7.92,24.79,24.79,0,0,1-18.54-7.89,26.14,26.14,0,0,1-7.51-18.85,25.69,25.69,0,0,1,7.61-18.68,25,25,0,0,1,18.58-7.65,24.43,24.43,0,0,1,18.13,8,25.76,25.76,0,0,1,7.65,18.44A26.3,26.3,0,0,1,892.67,354.76Zm.17-63.24a24.27,24.27,0,0,1-18.31,7.92A24.78,24.78,0,0,1,856,291.56a26.14,26.14,0,0,1-7.51-18.86A25.69,25.69,0,0,1,856.1,254a25,25,0,0,1,18.58-7.65,24.43,24.43,0,0,1,18.13,8,25.76,25.76,0,0,1,7.65,18.44A26.3,26.3,0,0,1,892.84,291.52Z" transform="translate(-174.5 0.5)" style="fill:#534741"/></g></svg>